name rise45.9887peak57.8056fall74.9286.mot
datacolumns 19
datarows 15
range 18.39826800000000 18.42160300000000
endheader
time	ground_force1_vx	ground_force1_vy	ground_force1_vz	ground_force1_px	ground_force1_py	ground_force1_pz	ground_force2_vx	ground_force2_vy	ground_force2_vz	ground_force2_px	ground_force2_py	ground_force2_pz	ground_torque1_x	ground_torque1_y	ground_torque1_z	ground_torque2_x	ground_torque2_y	ground_torque2_z	
18.39826800000000	66.14354500000000	776.80844700000000	62.26993200000000	0.30136600000000	0.00000000000000	0.12822000000000	0.00000000000000	0.00000000000000	0.00000000000000	0.00000000000000	0.00000000000000	0.00000000000000	0.00000000000000	20.57115900000000	0.00000000000000	0.00000000000000	0.00000000000000	0.00000000000000	
18.39993400000000	65.56576600000000	779.46825799999999	62.30305000000000	0.30063800000000	0.00000000000000	0.12812800000000	0.00000000000000	0.00000000000000	0.00000000000000	0.00000000000000	0.00000000000000	0.00000000000000	0.00000000000000	20.61433100000000	0.00000000000000	0.00000000000000	0.00000000000000	0.00000000000000	
18.40160200000000	64.98778900000001	781.98849900000005	62.33777800000000	0.29994000000000	0.00000000000000	0.12803700000000	0.00000000000000	0.00000000000000	0.00000000000000	0.00000000000000	0.00000000000000	0.00000000000000	0.00000000000000	20.66059900000000	0.00000000000000	0.00000000000000	0.00000000000000	0.00000000000000	
18.40326900000000	64.40967800000000	784.36657800000000	62.37410700000000	0.29927100000000	0.00000000000000	0.12794600000000	0.00000000000000	0.00000000000000	0.00000000000000	0.00000000000000	0.00000000000000	0.00000000000000	0.00000000000000	20.70985800000000	0.00000000000000	0.00000000000000	0.00000000000000	0.00000000000000	
18.40493400000000	63.83143200000000	786.60007299999995	62.41193900000000	0.29862700000000	0.00000000000000	0.12785500000000	0.00000000000000	0.00000000000000	0.00000000000000	0.00000000000000	0.00000000000000	0.00000000000000	0.00000000000000	20.76195500000000	0.00000000000000	0.00000000000000	0.00000000000000	0.00000000000000	
18.40659800000000	63.25299500000000	788.68675800000005	62.45109200000000	0.29800700000000	0.00000000000000	0.12776600000000	0.00000000000000	0.00000000000000	0.00000000000000	0.00000000000000	0.00000000000000	0.00000000000000	0.00000000000000	20.81668900000000	0.00000000000000	0.00000000000000	0.00000000000000	0.00000000000000	
18.40826800000000	62.67425900000000	790.62460999999996	62.49130500000000	0.29740800000000	0.00000000000000	0.12767700000000	0.00000000000000	0.00000000000000	0.00000000000000	0.00000000000000	0.00000000000000	0.00000000000000	0.00000000000000	20.87381200000000	0.00000000000000	0.00000000000000	0.00000000000000	0.00000000000000	
18.40992800000000	62.09507100000000	792.41182500000002	62.53224200000000	0.29682700000000	0.00000000000000	0.12759000000000	0.00000000000000	0.00000000000000	0.00000000000000	0.00000000000000	0.00000000000000	0.00000000000000	0.00000000000000	20.93303500000000	0.00000000000000	0.00000000000000	0.00000000000000	0.00000000000000	
18.41159800000000	61.51523500000000	794.04683699999998	62.57349800000000	0.29626200000000	0.00000000000000	0.12750300000000	0.00000000000000	0.00000000000000	0.00000000000000	0.00000000000000	0.00000000000000	0.00000000000000	0.00000000000000	20.99402800000000	0.00000000000000	0.00000000000000	0.00000000000000	0.00000000000000	
18.41326400000000	60.93452200000000	795.52832200000000	62.61460200000000	0.29570900000000	0.00000000000000	0.12741700000000	0.00000000000000	0.00000000000000	0.00000000000000	0.00000000000000	0.00000000000000	0.00000000000000	0.00000000000000	21.05642500000000	0.00000000000000	0.00000000000000	0.00000000000000	0.00000000000000	
18.41492900000000	60.35267400000000	796.85521400000005	62.65502700000000	0.29516700000000	0.00000000000000	0.12733300000000	0.00000000000000	0.00000000000000	0.00000000000000	0.00000000000000	0.00000000000000	0.00000000000000	0.00000000000000	21.11982500000000	0.00000000000000	0.00000000000000	0.00000000000000	0.00000000000000	
18.41659800000000	59.76940700000000	798.02671199999997	62.69419400000000	0.29463200000000	0.00000000000000	0.12725000000000	0.00000000000000	0.00000000000000	0.00000000000000	0.00000000000000	0.00000000000000	0.00000000000000	0.00000000000000	21.18379900000000	0.00000000000000	0.00000000000000	0.00000000000000	0.00000000000000	
18.41826700000000	59.18442300000000	799.04229299999997	62.73147600000000	0.29410100000000	0.00000000000000	0.12716800000000	0.00000000000000	0.00000000000000	0.00000000000000	0.00000000000000	0.00000000000000	0.00000000000000	0.00000000000000	21.24789000000000	0.00000000000000	0.00000000000000	0.00000000000000	0.00000000000000	
18.41993100000000	58.59741000000000	799.90171099999998	62.76620900000000	0.29357100000000	0.00000000000000	0.12708700000000	0.00000000000000	0.00000000000000	0.00000000000000	0.00000000000000	0.00000000000000	0.00000000000000	0.00000000000000	21.31161900000000	0.00000000000000	0.00000000000000	0.00000000000000	0.00000000000000	
18.42160300000000	58.00805100000000	800.60501199999999	62.79769600000000	0.29303900000000	0.00000000000000	0.12700800000000	0.00000000000000	0.00000000000000	0.00000000000000	0.00000000000000	0.00000000000000	0.00000000000000	0.00000000000000	21.37448700000000	0.00000000000000	0.00000000000000	0.00000000000000	0.00000000000000	
